Coordinates
version=1
nRows=24
nColumns=22
inDegrees=yes

Units are S.I. units (second, meters, Newtons, ...)
If the header above contains a line with 'inDegrees', this indicates whether rotational values are in degrees (yes) or radians (no).

endheader
time	pelvis_tilt	pelvis_list	pelvis_rotation	pelvis_tx	pelvis_ty	pelvis_tz	hip_flexion_r	hip_adduction_r	hip_rotation_r	knee_angle_r	ankle_angle_r	subtalar_angle_r	hip_flexion_l	hip_adduction_l	hip_rotation_l	knee_angle_l	ankle_angle_l	subtalar_angle_l	lumbar_extension	lumbar_bending	lumbar_rotation
      1.89000000	     -5.23867345	     -6.57595220	    -28.72542312	     -0.82401664	      0.88050065	     -0.34207842	     33.33999445	      0.73922785	     -5.89744859	    -24.61040236	      4.99755086	      8.38617109	    -10.50419225	     -6.13329703	      2.06027191	     -4.96573531	     22.30435214	     -2.61222531	     -5.59501175	      6.57957534	      5.15158079
      1.90000000	     -5.25162312	     -6.46583504	    -28.67562197	     -0.82033526	      0.87924397	     -0.33915205	     33.06534911	      0.70463015	     -5.83914012	    -23.13212855	      4.95087326	      8.29355536	    -10.62602574	     -6.07989014	      2.11417921	     -5.23502171	     22.67805519	     -2.75529198	     -5.47502637	      6.54851775	      5.16701466
      1.91000000	     -5.26560500	     -6.32875967	    -28.62949999	     -0.81659448	      0.87791998	     -0.33616344	     32.80674544	      0.66325034	     -5.70064272	    -21.69641165	      4.89204726	      8.23331504	    -10.72935786	     -6.00161127	      2.16869280	     -5.52108038	     23.06326214	     -2.88466026	     -5.34717027	      6.49679962	      5.16375442
      1.92000000	     -5.28648618	     -6.17198615	    -28.58265369	     -0.81279408	      0.87653101	     -0.33310980	     32.56224539	      0.61960822	     -5.49475249	    -20.30019109	      4.82385807	      8.20947930	    -10.80991918	     -5.91062706	      2.22908176	     -5.82886670	     23.45515038	     -2.98361269	     -5.20819868	      6.43255608	      5.15365033
      1.93000000	     -5.32809099	     -6.03061365	    -28.53651256	     -0.80891958	      0.87509283	     -0.32999558	     32.30287818	      0.60885253	     -5.24211328	    -18.90313363	      4.79333716	      8.20720920	    -10.88268781	     -5.84675421	      2.28697294	     -6.14307105	     23.84451552	     -3.09436594	     -5.06677776	      6.40370487	      5.15605655
      1.94000000	     -5.36997695	     -5.86663430	    -28.48566318	     -0.80498449	      0.87359332	     -0.32682462	     32.05687750	      0.58092701	     -4.94201120	    -17.55820806	      4.75508901	      8.22414094	    -10.94821064	     -5.76570871	      2.35703495	     -6.45831925	     24.23462432	     -3.17767252	     -4.91986488	      6.35572283	      5.13306024
      1.95000000	     -5.43759438	     -5.73108386	    -28.44056215	     -0.80096762	      0.87205305	     -0.32357392	     31.79112260	      0.59461766	     -4.63633471	    -16.21513325	      4.73310738	      8.28036561	    -11.01434436	     -5.72831978	      2.40364864	     -6.77459193	     24.61677558	     -3.27968932	     -4.77015218	      6.35668660	      5.13969503
      1.96000000	     -5.50413220	     -5.56424022	    -28.38518391	     -0.79689052	      0.87044860	     -0.32029567	     31.53961331	      0.57354393	     -4.32902611	    -14.92373334	      4.71220403	      8.35723302	    -11.07711009	     -5.66440827	      2.46443077	     -7.07396280	     24.99510226	     -3.34521798	     -4.61453544	      6.33231941	      5.11997911
      1.97000000	     -5.57280961	     -5.36898118	    -28.31938242	     -0.79275239	      0.86878092	     -0.31699633	     31.30250396	      0.52036424	     -4.04973273	    -13.68486844	      4.69203703	      8.43405685	    -11.13601987	     -5.57844035	      2.53258564	     -7.35481123	     25.37092584	     -3.37694368	     -4.45209115	      6.28948831	      5.08183424
      1.98000000	     -5.66037855	     -5.17991761	    -28.25073343	     -0.78852643	      0.86706430	     -0.31362817	     31.06329016	      0.47704833	     -3.83171761	    -12.48371906	      4.67972841	      8.54150089	    -11.20130146	     -5.51300554	      2.58305665	     -7.61484450	     25.73153369	     -3.39586594	     -4.27769160	      6.26666306	      5.05095486
      1.99000000	     -5.75855736	     -4.98004013	    -28.17213239	     -0.78421926	      0.86529356	     -0.31022528	     30.83401873	      0.42099432	     -3.70166371	    -11.34415036	      4.69468083	      8.67347574	    -11.27524950	     -5.44674292	      2.63233040	     -7.84008087	     26.06960828	     -3.39443264	     -4.09580195	      6.24751086	      5.01708534
      2.00000000	     -5.87098615	     -4.78355962	    -28.07666884	     -0.77980987	      0.86347996	     -0.30676627	     30.60699744	      0.36561597	     -3.68834868	    -10.27103106	      4.73279151	      8.89700615	    -11.36653112	     -5.39903453	      2.67796550	     -8.02379398	     26.39047554	     -3.35863063	     -3.90297690	      6.24327695	      4.96553564
      2.01000000	     -5.99172584	     -4.53563016	    -27.96197095	     -0.77536479	      0.86159236	     -0.30331094	     30.42465176	      0.26350488	     -3.76636561	     -9.29242369	      4.78973296	      9.01474208	    -11.43265965	     -5.31101810	      2.76591485	     -8.19059879	     26.67638405	     -3.32272737	     -3.68799209	      6.19767917	      4.91476420
      2.02000000	     -6.11719955	     -4.25659588	    -27.83020217	     -0.77087018	      0.85965321	     -0.29982416	     30.27082784	      0.13469631	     -3.95040370	     -8.41285126	      4.86333116	      9.09718973	    -11.50542456	     -5.20366484	      2.86464547	     -8.30848255	     26.95210477	     -3.28485969	     -3.46180082	      6.12709037	      4.83766610
      2.03000000	     -6.27427822	     -3.96275673	    -27.66370830	     -0.76631070	      0.85765473	     -0.29633162	     30.15339046	     -0.00317191	     -4.26299382	     -7.62743629	      4.95573833	      9.18707221	    -11.55592082	     -5.10957530	      3.00723694	     -8.39652866	     27.18978280	     -3.23192670	     -3.20427169	      6.06303017	      4.73851502
      2.04000000	     -6.44953934	     -3.63150631	    -27.46769519	     -0.76170542	      0.85560332	     -0.29283594	     30.07483458	     -0.17005095	     -4.65132689	     -6.94199401	      5.05741759	      9.25455335	    -11.58511966	     -4.99718357	      3.18694569	     -8.45418786	     27.39517068	     -3.17132359	     -2.91883798	      5.97705477	      4.61881036
      2.05000000	     -6.64673076	     -3.26668321	    -27.25162110	     -0.75707334	      0.85350425	     -0.28932014	     30.03954623	     -0.35652792	     -5.09180522	     -6.36059292	      5.13803721	      9.29357858	    -11.59085613	     -4.87233271	      3.39261980	     -8.48537980	     27.56153813	     -3.10505202	     -2.60850073	      5.87149435	      4.48626654
      2.06000000	     -6.86447080	     -2.87536691	    -27.02220662	     -0.75240269	      0.85137860	     -0.28575388	     30.03391182	     -0.55261270	     -5.54972523	     -5.86818287	      5.15606309	      9.29933137	    -11.57971833	     -4.73977819	      3.60900652	     -8.49390610	     27.69082070	     -3.03135996	     -2.27570865	      5.74964819	      4.34983610
      2.07000000	     -7.09735888	     -2.47432914	    -26.79726937	     -0.74768993	      0.84925782	     -0.28210943	     30.03643645	     -0.73863523	     -5.98215903	     -5.44254706	      5.06420466	      9.26818838	    -11.57014860	     -4.61060982	      3.81277215	     -8.47919482	     27.78105909	     -2.94838713	     -1.93645161	      5.62818839	      4.22627594
      2.08000000	     -7.33321285	     -2.08541189	    -26.60304766	     -0.74291671	      0.84719967	     -0.27834744	     29.99906308	     -0.88808372	     -6.31924064	     -5.02466126	      4.79427580	      9.21893964	    -11.60129188	     -4.49354502	      3.98608305	     -8.42145604	     27.80875385	     -2.87114788	     -1.61438246	      5.52606067	      4.15072307
      2.09000000	     -7.62549453	     -1.70967011	    -26.39778317	     -0.73811324	      0.84515257	     -0.27450368	     30.00589102	     -1.00198770	     -6.65502111	     -4.67096518	      4.34203454	      9.10576305	    -11.57268678	     -4.42756762	      4.15551883	     -8.39607425	     27.83143001	     -2.74390581	     -1.25314423	      5.46566845	      4.05712838
      2.10000000	     -7.92264502	     -1.37237949	    -26.24289478	     -0.73330673	      0.84325163	     -0.27053446	     30.00017976	     -1.05451498	     -6.90289947	     -4.35412608	      3.58607154	      8.96543015	    -11.58310397	     -4.39748193	      4.28066134	     -8.34609683	     27.79194840	     -2.60454690	     -0.93045774	      5.45303521	      4.03712402
      2.11000000	     -8.25087101	     -1.08930360	    -26.10506728	     -0.72850485	      0.84150927	     -0.26646616	     29.99886306	     -1.04088442	     -7.08564385	     -4.06269693	      2.55493224	      8.79175058	    -11.58636499	     -4.44110772	      4.39000925	     -8.30909558	     27.70576085	     -2.44319704	     -0.62400071	      5.51264967	      4.04997077
      2.12000000	     -8.60439305	     -0.90198623	    -25.99980867	     -0.72373493	      0.83999646	     -0.26228178	     30.01933630	     -0.92274669	     -7.26360372	     -3.86038557	      1.29164729	      8.38625805	    -11.58309320	     -4.59351027	      4.43886102	     -8.33853519	     27.60729294	     -2.05879064	     -0.36871305	      5.68902704	      4.10190480
